<?xml version="1.0" encoding="utf-8"?>
<!-- Generator: Adobe Illustrator 25.4.1, SVG Export Plug-In . SVG Version: 6.00 Build 0)  -->
<svg version="1.1" id="Layer_1" xmlns="http://www.w3.org/2000/svg" xmlns:xlink="http://www.w3.org/1999/xlink" x="0px" y="0px"
	 viewBox="0 0 3955.3 3955.3" style="enable-background:new 0 0 3955.3 3955.3;" xml:space="preserve">
<style type="text/css">
	.st0{fill-rule:evenodd;clip-rule:evenodd;fill:#0B0B0B;}
	.st1{fill:#24181E;}
	.st2{fill-rule:evenodd;clip-rule:evenodd;fill:#FEFEFE;}
	.st3{fill-rule:evenodd;clip-rule:evenodd;fill:#24181E;}
</style>
<path class="st0" d="M2465.1,1432.43c368.5-257.45,661.28-519.94,782.43-777.38c181.73,524.99,136.29,999.49,55.53,1458.85
	C3025.42,1886.74,2742.74,1659.58,2465.1,1432.43L2465.1,1432.43z"/>
<path class="st1" d="M3030.47,1129.55c-106.01,106.01-232.21,206.97-368.5,307.93l555.27,454.31
	c25.24-161.53,35.34-318.02,35.34-479.55c0-156.49-15.14-307.93-50.48-469.46C3151.62,1003.35,3096.09,1068.97,3030.47,1129.55
	L3030.47,1129.55z M2399.48,1336.51c176.68-126.2,338.21-252.4,464.41-378.59c126.2-121.15,222.11-242.3,272.59-353.36
	c30.29-60.58,100.96-85.81,161.53-60.58c35.34,15.14,55.53,45.43,65.62,80.77c90.86,272.59,126.2,530.03,131.25,782.43
	c0,252.4-30.29,494.7-75.72,726.9c-10.1,65.62-70.67,111.06-136.29,100.96c-25.24-5.05-45.43-20.19-60.57-30.29l-832.91-676.43
	c-50.48-40.38-55.53-116.1-15.14-171.63C2379.29,1351.66,2389.38,1341.56,2399.48,1336.51L2399.48,1336.51z"/>
<path class="st0" d="M1480.75,1432.43c-368.5-257.45-661.28-519.94-777.38-777.38c-181.73,524.99-141.34,999.49-55.53,1458.85
	C925.48,1886.74,1203.12,1659.58,1480.75,1432.43L1480.75,1432.43z"/>
<path class="st1" d="M1081.97,957.92c131.25,126.2,287.73,252.4,469.46,378.59l0,0c10.1,5.05,15.14,15.14,25.24,20.19
	c40.38,55.53,30.29,131.24-20.19,171.63l-827.86,676.43c-15.14,10.1-40.38,25.24-60.58,30.29
	c-65.62,10.1-131.25-35.34-141.34-100.96c-40.38-232.21-70.67-474.51-70.67-726.9c0-252.4,35.34-509.84,131.25-782.43
	c10.1-35.34,30.29-65.63,65.62-80.77c60.58-25.24,131.25,0,156.49,60.58C864.9,715.62,960.82,836.77,1081.97,957.92L1081.97,957.92z
	 M1283.88,1437.48c-136.29-100.96-262.49-201.92-368.5-307.93c-65.62-60.58-121.15-126.2-171.63-186.77
	c-35.34,161.53-50.48,312.97-50.48,469.46c0,161.53,15.14,318.02,35.34,479.55L1283.88,1437.48z"/>
<path class="st2" d="M2000.69,3406.17c757.19,0,1378.09-489.65,1378.09-1090.35c0-595.66-620.9-1085.31-1378.09-1085.31
	c-762.24,0-1383.14,489.65-1383.14,1085.31C617.56,2916.52,1238.45,3406.17,2000.69,3406.17L2000.69,3406.17z"/>
<path class="st1" d="M2899.22,1644.44c-227.16-181.73-545.18-297.83-898.53-297.83s-676.42,116.1-903.58,297.83
	c-222.11,171.63-358.4,408.88-358.4,671.38c0,262.49,136.29,499.75,358.4,676.42c227.16,181.73,550.23,292.78,903.58,292.78
	s671.38-111.05,898.53-292.78c222.11-176.68,358.4-413.93,358.4-676.42C3257.63,2053.32,3121.33,1816.07,2899.22,1644.44
	L2899.22,1644.44z M2000.69,1109.36c408.88,0,777.38,131.25,1049.97,343.26c277.64,222.11,449.27,524.99,449.27,863.2
	c0,338.21-171.63,646.14-449.27,863.2c-272.59,212.01-641.09,343.26-1049.97,343.26c-408.88,0-782.43-131.25-1049.97-343.26
	c-277.64-217.06-454.31-524.99-454.31-863.2c0-338.21,176.68-641.09,454.31-863.2C1218.26,1240.61,1591.81,1109.36,2000.69,1109.36
	L2000.69,1109.36z"/>
<path class="st1" d="M1369.7,2452.11c-10.1-25.24,0-50.48,20.19-65.62c25.24-10.1,55.53,0,65.62,25.24
	c35.34,70.67,75.72,116.1,126.2,141.34c40.38,20.19,85.81,30.29,131.25,25.24c45.43-5.05,90.86-25.24,126.2-55.53
	c45.43-40.38,80.77-95.91,100.96-166.58c5.05-30.29,30.29-45.43,55.53-35.34c20.19,5.05,35.34,20.19,35.34,35.34
	c15.14,60.58,45.43,111.06,90.86,146.39c30.29,25.24,65.62,40.38,100.96,50.48c35.34,5.05,70.67,10.1,111.05,0
	c70.67-10.09,146.39-55.53,212.01-136.29c15.14-25.24,45.43-25.24,65.62-10.1c25.24,15.14,30.29,45.43,10.1,65.62
	c-80.77,106.01-176.68,161.53-272.59,176.68c-50.48,10.09-106.01,10.09-151.44-5.05c-50.48-10.1-95.91-35.34-131.25-60.57
	c-30.29-25.24-60.58-55.53-80.77-90.86c-25.24,40.38-50.48,75.72-85.81,100.96c-50.48,45.43-111.05,70.67-176.68,80.77
	c-65.62,10.1-131.25-5.05-191.82-35.34C1470.66,2603.55,1410.08,2542.97,1369.7,2452.11L1369.7,2452.11z"/>
<path class="st1" d="M1339.41,2457.16c-5.05-15.14-5.05-35.34,0-50.48c10.1-20.19,20.19-35.34,40.38-45.43h5.05l0,0
	c20.19-10.09,40.38-10.09,55.53,0c20.19,5.05,35.34,20.19,45.43,35.34c10.1,30.29,30.29,60.58,45.43,80.77
	c20.19,20.19,40.38,35.34,60.57,50.48c20.19,10.1,40.38,15.14,55.53,20.19c20.19,5.05,40.38,5.05,60.58,0
	c20.19,0,40.38-5.05,60.58-15.14c15.14-10.1,35.34-20.19,50.48-35.34c20.19-15.14,40.38-40.38,55.53-65.62
	c15.14-25.24,25.24-50.48,35.34-85.81c5.05-20.19,20.19-35.34,35.34-45.43c15.14-10.1,35.34-15.14,60.58-10.1
	c15.14,5.05,25.24,10.1,35.34,20.19c10.1,15.14,20.19,25.24,20.19,40.38c5.05,25.24,15.14,50.48,30.29,70.67
	c10.1,25.24,30.29,40.38,50.48,60.58c15.14,10.1,25.24,15.14,40.38,25.24c15.14,5.05,30.29,10.09,45.43,15.14
	c15.14,5.05,30.29,5.05,50.48,5.05c15.14,0,35.34,0,50.48,0l0,0c35.34-10.1,70.67-20.19,100.96-45.43
	c35.34-20.19,65.62-50.48,90.86-85.81h5.05c10.1-20.19,30.29-25.24,50.48-30.29c20.19-5.05,40.38,0,55.53,15.14v5.05
	c20.19,10.09,30.29,30.29,30.29,45.43c5.05,20.19,0,40.38-15.14,60.58l0,0c-40.38,55.53-85.81,95.91-131.25,126.2
	c-55.53,30.29-106.01,50.48-161.53,60.58c-25.24,5.05-55.53,5.05-80.77,5.05c-30.29,0-55.53-5.05-85.81-10.1
	c-25.24-5.05-50.48-15.14-70.67-30.29c-25.24-10.1-50.48-25.24-70.67-40.38c-15.14-10.1-30.29-25.24-45.43-40.38
	c-5.05-5.05-10.1-10.1-15.14-15.14c-5.05,5.05-10.1,15.14-15.14,20.19c-15.14,15.14-30.29,35.34-50.48,50.48
	c-30.29,20.19-60.58,40.38-90.86,55.53c-30.29,15.14-65.62,25.24-100.96,30.29c-35.34,5.05-70.67,5.05-106.01-5.05
	c-35.34-5.05-70.67-20.19-106.01-35.34c-35.34-20.19-65.62-45.43-95.91-80.77c-30.29-35.34-55.53-70.67-75.72-116.1L1339.41,2457.16
	L1339.41,2457.16z"/>
<path class="st3" d="M1172.83,2305.72c80.77,0,146.39-95.91,146.39-212.01c0-116.1-65.62-212.01-146.39-212.01
	s-141.34,95.91-141.34,212.01C1031.49,2209.81,1092.06,2305.72,1172.83,2305.72L1172.83,2305.72z"/>
<path class="st3" d="M2752.83,2305.72c80.77,0,141.34-95.91,141.34-212.01c0-116.1-60.58-212.01-141.34-212.01
	s-146.39,95.91-146.39,212.01C2606.44,2209.81,2672.07,2305.72,2752.83,2305.72L2752.83,2305.72z"/>
<path class="st3" d="M1985.55,2396.58c111.05,0,196.87-60.57,196.87-131.25c0-70.67-85.81-131.25-196.87-131.25
	c-111.05,0-196.87,60.58-196.87,131.25C1788.68,2336.01,1874.49,2396.58,1985.55,2396.58L1985.55,2396.58z"/>
<path class="st1" d="M2121.84,2179.52c-35.34-25.24-80.77-40.38-136.29-40.38c-55.53,0-100.96,15.14-136.29,40.38
	c-35.34,20.19-55.53,50.48-55.53,85.81c0,35.34,20.19,65.62,55.53,90.86c35.34,20.19,80.77,35.34,136.29,35.34
	c55.53,0,100.96-15.14,136.29-35.34c35.34-25.24,55.53-55.53,55.53-90.86C2177.37,2230,2157.18,2199.71,2121.84,2179.52
	L2121.84,2179.52z M1985.55,2129.04c55.53,0,106.01,20.19,141.34,40.38c40.38,25.24,60.58,60.58,60.58,95.91
	c0,40.38-20.19,70.67-60.58,95.91c-35.34,25.24-85.81,40.38-141.34,40.38c-55.53,0-106.01-15.14-141.34-40.38
	c-40.38-25.24-60.58-55.53-60.58-95.91c0-35.34,20.19-70.67,60.58-95.91C1879.54,2149.23,1930.02,2129.04,1985.55,2129.04
	L1985.55,2129.04z"/>
</svg>
